<?xml version="1.0" encoding="UTF-8" standalone="no"?>
<!-- Uploaded to: SVG Repo, www.svgrepo.com, Generator: SVG Repo Mixer Tools -->

<svg
   height="600"
   width="1510.1949"
   version="1.1"
   id="_x32_"
   viewBox="0 0 966.52477 384"
   xml:space="preserve"
   sodipodi:docname="mail-material-2-svgrepo-com_moving.svg"
   inkscape:version="1.2.2 (b0a8486541, 2022-12-01)"
   xmlns:inkscape="http://www.inkscape.org/namespaces/inkscape"
   xmlns:sodipodi="http://sodipodi.sourceforge.net/DTD/sodipodi-0.dtd"
   xmlns="http://www.w3.org/2000/svg"
   xmlns:svg="http://www.w3.org/2000/svg"><defs
   id="defs11"><inkscape:path-effect
     effect="fillet_chamfer"
     id="path-effect237"
     is_visible="true"
     lpeversion="1"
     nodesatellites_param="F,0,0,1,0,10,0,1 @ F,0,0,1,0,10,0,1 @ F,0,0,1,0,10,0,1 @ F,0,0,1,0,10,0,1"
     unit="px"
     method="auto"
     mode="F"
     radius="10"
     chamfer_steps="1"
     flexible="false"
     use_knot_distance="true"
     apply_no_radius="true"
     apply_with_radius="true"
     only_selected="false"
     hide_knots="false" /><inkscape:path-effect
     effect="fillet_chamfer"
     id="path-effect235"
     is_visible="true"
     lpeversion="1"
     nodesatellites_param="F,0,0,1,0,10,0,1 @ F,0,0,1,0,10,0,1 @ F,0,0,1,0,10,0,1 @ F,0,0,1,0,10,0,1"
     unit="px"
     method="auto"
     mode="F"
     radius="10"
     chamfer_steps="1"
     flexible="false"
     use_knot_distance="true"
     apply_no_radius="true"
     apply_with_radius="true"
     only_selected="false"
     hide_knots="false" /><inkscape:path-effect
     effect="fillet_chamfer"
     id="path-effect233"
     is_visible="true"
     lpeversion="1"
     nodesatellites_param="F,0,0,1,0,10,0,1 @ F,0,0,1,0,10,0,1 @ F,0,0,1,0,10,0,1 @ F,0,0,1,0,10,0,1"
     unit="px"
     method="auto"
     mode="F"
     radius="10"
     chamfer_steps="1"
     flexible="false"
     use_knot_distance="true"
     apply_no_radius="true"
     apply_with_radius="true"
     only_selected="false"
     hide_knots="false" /><inkscape:path-effect
     effect="fillet_chamfer"
     id="path-effect233-3"
     is_visible="true"
     lpeversion="1"
     nodesatellites_param="F,0,0,1,0,10,0,1 @ F,0,0,1,0,10,0,1 @ F,0,0,1,0,10,0,1 @ F,0,0,1,0,10,0,1"
     unit="px"
     method="auto"
     mode="F"
     radius="10"
     chamfer_steps="1"
     flexible="false"
     use_knot_distance="true"
     apply_no_radius="true"
     apply_with_radius="true"
     only_selected="false"
     hide_knots="false" /></defs><sodipodi:namedview
   id="namedview9"
   pagecolor="#ffffff"
   bordercolor="#000000"
   borderopacity="0.25"
   inkscape:showpageshadow="2"
   inkscape:pageopacity="0.0"
   inkscape:pagecheckerboard="0"
   inkscape:deskcolor="#d1d1d1"
   showgrid="false"
   inkscape:zoom="0.65672542"
   inkscape:cx="874.03347"
   inkscape:cy="445.39162"
   inkscape:window-width="1920"
   inkscape:window-height="1006"
   inkscape:window-x="0"
   inkscape:window-y="0"
   inkscape:window-maximized="1"
   inkscape:current-layer="_x32_" />
<style
   type="text/css"
   id="style2">
	.st0{fill:#000000;}
</style>
<g
   id="g6"
   transform="translate(454.52475,-64)">
	<path
   class="st0"
   d="M 0,64 V 448 H 512 V 64 Z m 264.132,202.765 c -1.996,1.688 -4.95,2.657 -8.1,2.657 -3.153,0 -6.098,-0.964 -8.083,-2.642 L 48,112 H 464 Z M 95.11,194.306 164.628,253.26 48,368 V 160 Z m 104.178,88.346 16.35,13.866 c 10.836,9.215 25.169,14.288 40.361,14.288 15.236,0 29.588,-5.071 40.418,-14.282 L 312.738,282.678 432,400 H 80 Z M 347.394,253.282 464,160 v 208 z"
   id="path4" />
</g>
<path
   style="fill:#000000;stroke-width:0.66327"
   id="rect171"
   width="384"
   height="38.400002"
   x="0"
   y="137.60001"
   inkscape:path-effect="#path-effect233"
   d="m 10,137.60001 h 364 a 10,10 45 0 1 10,10 v 18.4 a 10,10 135 0 1 -10,10 H 10 a 10,10 45 0 1 -10,-10 v -18.4 a 10,10 135 0 1 10,-10 z"
   sodipodi:type="rect" /><path
   style="fill:#000000;stroke-width:0.66327"
   id="rect171-6"
   width="366.04407"
   height="38.400002"
   x="68.412659"
   y="57.599998"
   inkscape:path-effect="#path-effect233-3"
   d="M 78.412659,57.599998 H 424.45673 a 10,10 45 0 1 10,10 V 86 a 10,10 135 0 1 -10,10 L 78.412659,96 a 10,10 45 0 1 -10,-10 V 67.599998 a 10,10 135 0 1 10,-10 z"
   sodipodi:type="rect" /><path
   style="fill:#000000;stroke-width:0.707884"
   id="rect175"
   width="248.26695"
   height="38.400002"
   x="223.03918"
   y="217.60001"
   sodipodi:type="rect"
   d="m 233.03918,217.60001 h 228.26696 a 10,10 45 0 1 10,10 v 18.4 a 10,10 135 0 1 -10,10 H 233.03918 a 10,10 45 0 1 -10,-10 v -18.4 a 10,10 135 0 1 10,-10 z"
   inkscape:path-effect="#path-effect235" /><path
   style="fill:#000000;stroke-width:0.619129"
   id="rect177"
   width="320"
   height="38.400002"
   x="-427.68396"
   y="297.60001"
   inkscape:path-effect="#path-effect237"
   d="m -417.68396,297.60001 h 300 a 10,10 45 0 1 10,10 v 18.4 a 10,10 135 0 1 -10,10 h -300 a 10,10 45 0 1 -10,-10 v -18.4 a 10,10 135 0 1 10,-10 z"
   sodipodi:type="rect"
   transform="scale(-1,1)" /></svg>
