<?xml version="1.0" encoding="UTF-8" standalone="no"?>
<!-- Uploaded to: SVG Repo, www.svgrepo.com, Generator: SVG Repo Mixer Tools -->

<svg
   height="600"
   width="1510.1949"
   version="1.1"
   id="_x32_"
   viewBox="0 0 966.52477 384"
   xml:space="preserve"
   sodipodi:docname="mail-material-2-svgrepo-com_moving_modified_mirrored.svg"
   inkscape:version="1.2.2 (b0a8486541, 2022-12-01)"
   xmlns:inkscape="http://www.inkscape.org/namespaces/inkscape"
   xmlns:sodipodi="http://sodipodi.sourceforge.net/DTD/sodipodi-0.dtd"
   xmlns="http://www.w3.org/2000/svg"
   xmlns:svg="http://www.w3.org/2000/svg"><defs
   id="defs11"><inkscape:path-effect
     effect="fillet_chamfer"
     id="path-effect237"
     is_visible="true"
     lpeversion="1"
     nodesatellites_param="F,0,0,1,0,10,0,1 @ F,0,0,1,0,10,0,1 @ F,0,0,1,0,10,0,1 @ F,0,0,1,0,10,0,1"
     unit="px"
     method="auto"
     mode="F"
     radius="10"
     chamfer_steps="1"
     flexible="false"
     use_knot_distance="true"
     apply_no_radius="true"
     apply_with_radius="true"
     only_selected="false"
     hide_knots="false" /><inkscape:path-effect
     effect="fillet_chamfer"
     id="path-effect235"
     is_visible="true"
     lpeversion="1"
     nodesatellites_param="F,0,0,1,0,10,0,1 @ F,0,0,1,0,10,0,1 @ F,0,0,1,0,10,0,1 @ F,0,0,1,0,10,0,1"
     unit="px"
     method="auto"
     mode="F"
     radius="10"
     chamfer_steps="1"
     flexible="false"
     use_knot_distance="true"
     apply_no_radius="true"
     apply_with_radius="true"
     only_selected="false"
     hide_knots="false" /><inkscape:path-effect
     effect="fillet_chamfer"
     id="path-effect233"
     is_visible="true"
     lpeversion="1"
     nodesatellites_param="F,0,0,1,0,10,0,1 @ F,0,0,1,0,10,0,1 @ F,0,0,1,0,10,0,1 @ F,0,0,1,0,10.749443,0,1"
     unit="px"
     method="auto"
     mode="F"
     radius="10"
     chamfer_steps="1"
     flexible="false"
     use_knot_distance="true"
     apply_no_radius="true"
     apply_with_radius="true"
     only_selected="false"
     hide_knots="false" /><inkscape:path-effect
     effect="fillet_chamfer"
     id="path-effect233-3"
     is_visible="true"
     lpeversion="1"
     nodesatellites_param="F,0,0,1,0,10,0,1 @ F,0,0,1,0,10,0,1 @ F,0,0,1,0,10,0,1 @ F,0,0,1,0,10,0,1"
     unit="px"
     method="auto"
     mode="F"
     radius="10"
     chamfer_steps="1"
     flexible="false"
     use_knot_distance="true"
     apply_no_radius="true"
     apply_with_radius="true"
     only_selected="false"
     hide_knots="false" /></defs><sodipodi:namedview
   id="namedview9"
   pagecolor="#ffffff"
   bordercolor="#000000"
   borderopacity="0.25"
   inkscape:showpageshadow="2"
   inkscape:pageopacity="0.0"
   inkscape:pagecheckerboard="0"
   inkscape:deskcolor="#d1d1d1"
   showgrid="false"
   inkscape:zoom="0.464375"
   inkscape:cx="517.9004"
   inkscape:cy="80.753701"
   inkscape:window-width="1920"
   inkscape:window-height="1006"
   inkscape:window-x="0"
   inkscape:window-y="0"
   inkscape:window-maximized="1"
   inkscape:current-layer="_x32_" />
<style
   type="text/css"
   id="style2">
	.st0{fill:#000000;}
</style>
<g
   id="g6"
   transform="matrix(-1,0,0,1,519.07609,-64)">
	<path
   class="st0"
   d="M 0,64 V 448 H 512 V 64 Z m 264.132,202.765 c -1.996,1.688 -4.95,2.657 -8.1,2.657 -3.153,0 -6.098,-0.964 -8.083,-2.642 L 48,112 H 464 Z M 95.11,194.306 164.628,253.26 48,368 V 160 Z m 104.178,88.346 16.35,13.866 c 10.836,9.215 25.169,14.288 40.361,14.288 15.236,0 29.588,-5.071 40.418,-14.282 L 312.738,282.678 432,400 H 80 Z M 347.394,253.282 464,160 v 208 z"
   id="path4" />
</g>
<path
   id="rect171"
   d="m 958.84895,146.82085 -359.24811,-9.22084 c -5.52103,-0.14171 -10,4.47715 -10,10 v 18.4 c 0,5.52285 4.47952,10.16174 10,10 L 958.7064,165.47859 c 5.20528,-0.15251 7.96665,-0.2743 7.81221,-6.20905 l -0.13401,-5.1494 c -0.14368,-5.52098 -2.01462,-7.15758 -7.53565,-7.29929 z"
   style="fill:#000000;stroke-width:0.66327"
   sodipodi:nodetypes="sssssssss" /><path
   id="rect171-6"
   d="M 896.42729,64.706576 549.14411,57.599998 c -5.52169,-0.112992 -10,4.477153 -10,10 V 86 c 0,5.522847 4.47931,10.154194 10,10 l 346.81705,-9.686688 c 5.52069,-0.154194 6.167,-5.235741 7.48719,-8.87374 0.73021,-2.012211 0.84419,-4.467672 -0.0298,-6.421752 -1.28177,-2.865966 -1.46962,-6.198252 -6.99131,-6.311244 z"
   style="fill:#000000;stroke-width:0.66327"
   sodipodi:nodetypes="ssssssaas" /><path
   id="rect175"
   d="M 741.38457,222.48092 512.2947,217.60001 c -5.52159,-0.11764 -10,4.47715 -10,10 v 18.4 c 0,5.52285 4.47802,10.09781 10,10 l 229.90178,-4.0723 c 5.52198,-0.0978 7.44978,-3.88001 7.35929,-9.40211 l -0.23149,-14.12743 c -0.0905,-5.52211 -2.41812,-5.79961 -7.93971,-5.91725 z"
   style="fill:#000000;stroke-width:0.707884"
   sodipodi:nodetypes="sssssssss" /><path
   id="rect177"
   d="m 555.91688,297.60001 303.21053,7.01551 c 5.52137,0.12775 6.28659,3.32926 6.28193,8.8521 l -0.005,5.69631 c -0.005,5.52284 -0.29142,9.6541 -5.81278,9.78235 l -303.67487,7.05373 c -5.52136,0.12825 -10,-4.47715 -10,-10 v -18.4 c 0,-5.52285 4.47863,-10.12775 10,-10 z"
   style="fill:#000000;stroke-width:0.619129"
   sodipodi:nodetypes="sssssssss" /></svg>
